# Blender v2.75 (sub 0) OBJ File: ''
# www.blender.org
mtllib cardboard_box.mtl
o box_closed
v -0.006302 -0.179996 0.010000
v -0.010000 -0.365000 0.010000
v -0.400000 -0.375000 -0.000000
v -0.179989 -0.007383 0.481166
v -0.390000 -0.010000 0.490000
v -0.400000 -0.375000 0.499999
v 0.000000 -0.382795 0.247572
v -0.408314 -0.382795 0.250000
v 0.408314 -0.000000 0.250000
v 0.408314 -0.382795 0.250000
v 0.400000 -0.375000 -0.000000
v 0.000000 0.382795 0.247572
v 0.408314 0.382795 0.250000
v 0.400000 0.375000 0.000000
v -0.408314 -0.000000 0.250000
v -0.408314 0.382795 0.250000
v -0.400000 0.375000 0.000000
v -0.010000 0.365000 0.010000
v -0.006302 0.179996 0.010000
v 0.400000 0.375000 0.500000
v 0.000000 0.375000 0.495143
v 0.180000 -0.004849 0.485968
v 0.400000 -0.375000 0.499999
v 0.400000 -0.000000 0.500000
v 0.390000 -0.010000 0.490000
v 0.179989 -0.007383 0.481166
v -0.400000 -0.000000 0.500000
v 0.000000 -0.375000 -0.000000
v -0.002078 -0.179991 0.006698
v 0.400000 0.000000 0.000000
v -0.002078 0.179991 0.006698
v -0.400000 0.375000 0.500000
v -0.180000 -0.004849 0.485968
v 0.000000 0.375000 0.000000
v 0.000000 -0.375000 0.495142
v -0.400000 0.000000 0.000000
vt 0.153800 0.529900
vt 0.154100 0.476500
vt 0.266900 0.472500
vt 0.203700 0.827200
vt 0.264100 0.827400
vt 0.268100 0.932500
vt 0.361900 0.817100
vt 0.361200 0.701200
vt 0.433700 0.701200
vt 0.517600 0.579100
vt 0.517600 0.470400
vt 0.590100 0.470400
vt 0.516500 0.815800
vt 0.515800 0.699900
vt 0.588300 0.699900
vt 0.363500 0.581400
vt 0.363500 0.472800
vt 0.435900 0.472800
vt 0.268800 0.689400
vt 0.156000 0.687300
vt 0.154700 0.634000
vt 0.035500 0.717800
vt 0.150900 0.716800
vt 0.100000 0.826700
vt 0.590100 0.687800
vt 0.517600 0.687800
vt 0.435900 0.690100
vt 0.363500 0.690100
vt 0.037600 0.934500
vt 0.036300 0.826000
vt 0.039700 0.829400
vt 0.100100 0.828100
vt 0.267500 0.824000
vt 0.035200 0.474300
vt 0.150700 0.473200
vt 0.152200 0.529800
vt 0.433700 0.933000
vt 0.361200 0.933000
vt 0.588300 0.931700
vt 0.515800 0.931700
vt 0.037100 0.691600
vt 0.036100 0.583000
vt 0.153100 0.634000
vt 0.266400 0.715800
vt 0.203800 0.825800
vt 0.152600 0.690700
vt 0.152800 0.933700
vt 0.268100 0.580900
vt 0.288800 0.701200
vt 0.445200 0.470400
vt 0.443400 0.699900
vt 0.291000 0.472800
vt 0.445200 0.687800
vt 0.445200 0.579100
vt 0.291000 0.690100
vt 0.291000 0.581400
vt 0.288800 0.933000
vt 0.290200 0.817100
vt 0.443400 0.931700
vt 0.444800 0.815800
vt 0.433700 0.817100
vt 0.590100 0.579100
vt 0.588300 0.815800
vt 0.435900 0.581400
vn -0.296900 0.002100 -0.954900
vn -0.436700 0.011200 -0.899500
vn 0.025500 -0.000100 -0.999700
vn 0.029600 0.049000 0.998400
vn 0.453500 0.013800 0.891200
vn 0.029100 0.026800 0.999200
vn 0.000000 -1.000000 -0.000100
vn 0.000000 -1.000000 0.000100
vn -0.000100 -0.999500 -0.031300
vn 1.000000 -0.000000 0.000000
vn 0.999400 0.000000 -0.033200
vn -0.000000 1.000000 -0.000100
vn -0.000000 1.000000 0.000100
vn 0.000100 0.999500 -0.031300
vn -1.000000 -0.000000 0.000000
vn -0.999400 0.000000 -0.033200
vn 0.025500 0.000100 -0.999700
vn -0.438700 -0.009200 -0.898600
vn -0.305800 -0.019000 -0.951900
vn -0.028400 -0.020500 0.999400
vn 0.006000 -0.031500 0.999500
vn -0.030000 -0.014900 0.999400
vn -0.029100 0.026800 0.999200
vn -0.707100 -0.000000 0.707100
vn -0.453500 0.013800 0.891200
vn -0.015300 -0.927900 0.372500
vn -0.014500 -0.933200 0.359100
vn -0.030400 -0.631900 0.774400
vn 0.707100 -0.000000 0.707100
vn -0.000900 -0.001900 -1.000000
vn -0.289700 0.034800 -0.956500
vn -0.322400 0.004000 -0.946600
vn -0.029600 0.049000 0.998400
vn 0.000100 -0.999500 -0.031300
vn -0.000100 0.999500 -0.031300
vn -0.012800 -0.008000 -0.999900
vn -0.018100 0.003600 -0.999800
vn -0.327500 -0.030400 -0.944400
vn 0.011100 -0.000500 0.999900
vn 0.069800 -0.006600 0.997500
vn 0.045200 -0.040000 0.998200
vn 0.015300 -0.927900 0.372600
vn 0.030300 -0.622900 0.781700
vn 0.030400 -0.631900 0.774400
vn 0.000000 -0.707100 -0.707100
vn 0.000000 0.707100 -0.707100
vn 0.000000 0.042200 0.999100
vn 0.025400 0.000000 -0.999700
vn 0.000300 -0.999500 0.031300
vn 0.999400 -0.000000 0.033200
vn -0.000300 0.999500 0.031300
vn -0.999400 -0.000000 0.033200
vn -0.000300 -0.999500 0.031300
vn 0.000000 -0.999500 0.031500
vn 0.000300 0.999500 0.031300
vn 0.000000 0.999500 0.031500
vn 0.000000 -0.999500 -0.031500
vn 0.000000 0.999500 -0.031500
vn -0.096400 0.019100 0.995200
vn -0.030300 -0.622900 0.781700
vn -0.279000 -0.044800 -0.959200
vn 0.014500 -0.933200 0.359000
usemtl None
s 1
f 1/1/1 2/2/2 3/3/3
f 4/4/4 5/5/5 6/6/6
f 7/7/7 8/8/8 3/9/9
f 9/10/10 10/11/10 11/12/11
f 12/13/12 13/14/13 14/15/14
f 15/16/15 16/17/15 17/18/16
f 17/19/17 18/20/18 19/21/19
f 20/22/20 21/23/21 22/24/22
f 14/25/11 13/26/10 9/10/10
f 3/27/16 8/28/15 15/16/15
f 23/29/23 24/30/24 25/31/25
f 22/24/26 26/32/27 25/31/28
f 27/33/29 6/6/6 5/5/5
f 11/34/30 28/35/31 29/36/32
f 23/29/23 25/31/25 26/32/33
f 11/37/34 10/38/8 7/7/7
f 17/39/35 16/40/13 12/13/12
f 14/41/36 30/42/37 31/43/38
f 32/44/39 27/33/40 33/45/41
f 33/45/42 27/33/43 5/5/44
f 17/19/45 34/46/45 18/20/45
f 31/43/38 19/21/19 18/20/18
f 29/36/32 28/35/31 2/2/2
f 28/35/46 3/3/46 2/2/46
f 22/24/22 21/23/21 33/45/41
f 26/32/33 4/4/4 35/47/47
f 26/32/27 22/24/26 33/45/42
f 30/42/37 29/36/32 31/43/38
f 36/48/48 19/21/19 1/1/1
f 19/21/19 31/43/38 29/36/32
f 6/49/49 8/8/8 7/7/7
f 23/50/50 10/11/10 9/10/10
f 20/51/51 13/14/13 12/13/12
f 32/52/52 16/17/15 15/16/15
f 20/53/50 24/54/50 9/10/10
f 6/55/52 27/56/52 15/16/15
f 23/57/53 35/58/54 7/7/7
f 32/59/55 21/60/56 12/13/12
f 36/48/48 1/1/1 3/3/3
f 35/47/47 4/4/4 6/6/6
f 28/61/57 7/7/7 3/9/9
f 30/62/11 9/10/10 11/12/11
f 34/63/58 12/13/12 14/15/14
f 36/64/16 15/16/15 17/18/16
f 36/48/48 17/19/17 19/21/19
f 24/30/59 20/22/20 22/24/22
f 30/62/11 14/25/11 9/10/10
f 36/64/16 3/27/16 15/16/15
f 24/30/60 22/24/26 25/31/28
f 30/42/37 11/34/30 29/36/32
f 35/47/47 23/29/23 26/32/33
f 28/61/57 11/37/34 7/7/7
f 34/63/58 17/39/35 12/13/12
f 34/46/61 14/41/36 31/43/38
f 21/23/21 32/44/39 33/45/41
f 4/4/62 33/45/42 5/5/44
f 34/46/61 31/43/38 18/20/18
f 1/1/1 29/36/32 2/2/2
f 4/4/62 26/32/27 33/45/42
f 1/1/1 19/21/19 29/36/32
f 35/58/54 6/49/49 7/7/7
f 24/54/50 23/50/50 9/10/10
f 21/60/56 20/51/51 12/13/12
f 27/56/52 32/52/52 15/16/15
f 13/26/10 20/53/50 9/10/10
f 8/28/15 6/55/52 15/16/15
f 10/38/8 23/57/53 7/7/7
f 16/40/13 32/59/55 12/13/12
